<svg xmlns="http://www.w3.org/2000/svg" width="749" height="600" viewBox="0 0 749 600" version="1.1"><path d="M 276.922 67.274 C 272.493 70.258, 270.141 73.888, 264.974 85.711 C 262.621 91.095, 259.225 98.650, 257.428 102.500 C 255.631 106.350, 253.472 111.188, 252.631 113.250 L 251.102 117 165.801 117.010 L 80.500 117.020 75.500 119.387 C 69.323 122.312, 64.811 126.961, 61.801 133.500 L 59.500 138.500 59.193 322.500 C 58.962 460.699, 59.178 507.869, 60.061 512 C 62.148 521.764, 66.900 528.329, 75 532.638 C 78.391 534.442, 87.698 534.500, 373 534.500 L 667.500 534.500 673.498 530.500 C 678.460 527.191, 680.056 525.377, 682.740 520 L 685.985 513.500 685.992 325.837 L 686 138.175 682.743 131.883 C 679.144 124.932, 673.321 119.739, 667.225 118.046 C 664.795 117.371, 634.100 117.009, 578.918 117.006 L 494.336 117 491.761 110.750 C 486.007 96.783, 476.195 75.889, 473.702 72.291 C 468.248 64.421, 476.269 65, 372.744 65 L 280.296 65 276.922 67.274 M 113 195.500 L 113 221 138.500 221 L 164 221 164 195.500 L 164 170 138.500 170 L 113 170 113 195.500 M 358 170.603 C 337.403 173.104, 323.361 176.956, 307.413 184.478 C 273.301 200.568, 248.660 224.892, 232.425 258.500 C 204.470 316.371, 215.134 385.372, 259.335 432.615 C 277.822 452.374, 298.548 465.431, 325.500 474.299 C 343.017 480.062, 351.945 481.411, 372.500 481.405 C 393.513 481.398, 403.177 479.938, 420.778 474.108 C 460.525 460.944, 492.310 433.938, 511.194 397.287 C 522.592 375.164, 526.889 358.036, 527.695 331.500 C 528.596 301.864, 524.512 281.966, 512.507 257.500 C 504.350 240.875, 495.237 228.200, 481.923 214.960 C 470.363 203.463, 453.467 191.335, 441.500 185.942 C 437.650 184.207, 432.643 181.950, 430.374 180.926 C 424.462 178.257, 409.925 174.178, 400.013 172.406 C 391.665 170.914, 364.902 169.765, 358 170.603 M 361 222.054 C 322.294 225.991, 287.681 253.110, 274.637 289.720 C 270.849 300.353, 268 315.969, 268 326.104 C 268 336.837, 271.462 354.128, 275.888 365.500 C 281.946 381.066, 295.074 398.218, 308.979 408.736 C 336.543 429.584, 370.637 435.789, 403.635 425.963 C 435.926 416.347, 463.871 388.034, 472.687 356 C 476.690 341.452, 477.276 337.524, 477.225 325.571 C 477.140 305.345, 470.720 283.855, 460.025 267.990 C 454.651 260.018, 442.544 247.355, 434.500 241.294 C 414.985 226.590, 387.399 219.369, 361 222.054" stroke="none" fill="#fbf3c3" fill-rule="evenodd"/><path d="M 268.500 14.487 C 247.293 20.238, 230.223 35.715, 220.029 58.435 L 217.112 64.937 144.306 65.219 L 71.500 65.500 61.506 68.957 C 36.087 77.750, 16.563 98.840, 9.967 124.629 C 8.044 132.148, 8 136.639, 8.017 325.410 C 8.032 490.617, 8.245 519.511, 9.492 525.500 C 10.302 529.392, 13.147 536.940, 15.899 542.500 C 26.006 562.917, 43.042 577.375, 65.016 584.182 L 72.500 586.500 368 586.804 C 585.305 587.027, 665.438 586.806, 670.823 585.969 C 696.500 581.979, 717.654 566.551, 729.058 543.500 C 738.327 524.761, 737.500 546.077, 737.500 326 C 737.500 114.093, 737.869 127.705, 731.743 113.500 C 721.461 89.661, 701.765 72.989, 676.818 67.008 C 668.919 65.114, 664.969 65.014, 598.366 65.007 L 528.232 65 526.023 59.557 C 519.373 43.172, 505.728 27.717, 491.291 20.219 C 476.650 12.615, 482.921 12.992, 372.356 13.066 C 292.442 13.119, 272.542 13.391, 268.500 14.487 M 276.922 67.274 C 272.493 70.258, 270.141 73.888, 264.974 85.711 C 262.621 91.095, 259.225 98.650, 257.428 102.500 C 255.631 106.350, 253.472 111.188, 252.631 113.250 L 251.102 117 165.801 117.010 L 80.500 117.020 75.500 119.387 C 69.323 122.312, 64.811 126.961, 61.801 133.500 L 59.500 138.500 59.193 322.500 C 58.962 460.699, 59.178 507.869, 60.061 512 C 62.148 521.764, 66.900 528.329, 75 532.638 C 78.391 534.442, 87.698 534.500, 373 534.500 L 667.500 534.500 673.498 530.500 C 678.460 527.191, 680.056 525.377, 682.740 520 L 685.985 513.500 685.992 325.837 L 686 138.175 682.743 131.883 C 679.144 124.932, 673.321 119.739, 667.225 118.046 C 664.795 117.371, 634.100 117.009, 578.918 117.006 L 494.336 117 491.761 110.750 C 486.007 96.783, 476.195 75.889, 473.702 72.291 C 468.248 64.421, 476.269 65, 372.744 65 L 280.296 65 276.922 67.274 M 113 195.500 L 113 221 138.500 221 L 164 221 164 195.500 L 164 170 138.500 170 L 113 170 113 195.500 M 358 170.603 C 337.403 173.104, 323.361 176.956, 307.413 184.478 C 273.301 200.568, 248.660 224.892, 232.425 258.500 C 204.470 316.371, 215.134 385.372, 259.335 432.615 C 277.822 452.374, 298.548 465.431, 325.500 474.299 C 343.017 480.062, 351.945 481.411, 372.500 481.405 C 393.513 481.398, 403.177 479.938, 420.778 474.108 C 460.525 460.944, 492.310 433.938, 511.194 397.287 C 522.592 375.164, 526.889 358.036, 527.695 331.500 C 528.596 301.864, 524.512 281.966, 512.507 257.500 C 504.350 240.875, 495.237 228.200, 481.923 214.960 C 470.363 203.463, 453.467 191.335, 441.500 185.942 C 437.650 184.207, 432.643 181.950, 430.374 180.926 C 424.462 178.257, 409.925 174.178, 400.013 172.406 C 391.665 170.914, 364.902 169.765, 358 170.603 M 361 222.054 C 322.294 225.991, 287.681 253.110, 274.637 289.720 C 270.849 300.353, 268 315.969, 268 326.104 C 268 336.837, 271.462 354.128, 275.888 365.500 C 281.946 381.066, 295.074 398.218, 308.979 408.736 C 336.543 429.584, 370.637 435.789, 403.635 425.963 C 435.926 416.347, 463.871 388.034, 472.687 356 C 476.690 341.452, 477.276 337.524, 477.225 325.571 C 477.140 305.345, 470.720 283.855, 460.025 267.990 C 454.651 260.018, 442.544 247.355, 434.500 241.294 C 414.985 226.590, 387.399 219.369, 361 222.054" stroke="none" fill="#040404" fill-rule="evenodd"/></svg>